<svg width="14" height="14" viewBox="0 0 14 14" fill="none" xmlns="http://www.w3.org/2000/svg">
<path d="M11.6565 5.47432V3.08795H10.1722V5.47432H7.82873V6.98568H10.1722V9.37205H11.6565V6.98568H14V5.47432H11.6565ZM5.60364 2.72539C5.95611 3.98745 5.42382 5.30727 4.57594 5.55052C4.4786 5.57836 4.37752 5.59268 4.27566 5.59268C3.4987 5.59268 2.72878 4.7923 2.44381 3.68995C2.28461 3.07061 2.29742 2.52923 2.48021 2.00868C2.65988 1.49657 2.98235 1.1507 3.38856 1.03441C3.48621 1.00625 3.5876 0.991932 3.68915 0.991932C4.62718 0.991932 5.23009 1.38791 5.60364 2.72539ZM6.54167 10.6602C6.61026 11.7791 5.67051 12.6045 4.25941 12.7091C2.82612 12.8157 1.64624 12.1587 1.57749 11.0412C1.54422 10.5045 1.77622 9.97802 2.22993 9.55914C2.69035 9.13452 3.32232 8.87266 4.0099 8.82111C4.09099 8.81586 4.1716 8.81252 4.25175 8.81252C5.57833 8.81252 6.47668 9.60655 6.54167 10.6602ZM0.742736 3.49093C0.742736 4.67902 1.13238 5.53684 1.90074 6.04084C2.52958 6.45336 3.26014 6.51509 3.63947 6.51509C3.73149 6.51509 3.80539 6.51159 3.85695 6.50809C3.85695 6.50809 3.73649 7.30609 4.31768 8.09598L4.29144 8.09582C3.28451 8.09582 0 8.30995 0 11.0594C0 13.857 3.01657 13.999 3.62166 13.999C3.669 13.999 3.69681 13.9981 3.69681 13.9981C3.70353 13.9983 3.7468 14 3.82039 14C4.20879 14 5.21275 13.9502 6.145 13.4888C7.35425 12.891 7.96793 11.8513 7.96793 10.3985C7.96793 8.99452 7.03319 8.15898 6.35091 7.54823C5.93439 7.17627 5.57458 6.85491 5.57458 6.54245C5.57458 6.22411 5.83737 5.98484 6.16968 5.68177C6.70791 5.19161 7.21504 4.494 7.21504 3.1753C7.21504 2.016 7.0674 1.23789 6.15812 0.744227C6.25295 0.69475 6.58808 0.658636 6.754 0.635409C7.24676 0.566841 7.96793 0.489046 7.96793 0.0792274V0H4.37533C4.3394 0.000954545 0.742736 0.136659 0.742736 3.49093Z" fill="#666D89"/>
</svg>
