<svg width="14" height="14" viewBox="0 0 14 14" fill="none" xmlns="http://www.w3.org/2000/svg">
<path d="M0.0787113 4.23401H3.07192V14H0.0787113V4.23401ZM3.17008 1.51788C3.17008 2.35642 2.55967 3.03561 1.55525 3.03561C0.610402 3.03561 0 2.35642 0 1.51788C0 0.658996 0.630157 0 1.59476 0C2.55967 0 3.15063 0.658996 3.17008 1.51788Z" fill="#666D89"/>
<path d="M4.86295 7.3448C4.86295 6.12668 4.82375 5.10829 4.78455 4.22936H7.38342L7.52171 5.58743H7.58066C7.97438 4.94815 8.93929 4.00944 10.5541 4.00944C12.5231 4.00944 14 5.34778 14 8.22341V13.9953H11.0068V8.58312C11.0068 7.32477 10.5736 6.46635 9.49043 6.46635C8.66349 6.46635 8.17162 7.04536 7.95493 7.60449C7.87591 7.80407 7.85615 8.08395 7.85615 8.36351V13.9953H4.86295V7.3448Z" fill="#666D89"/>
</svg>
