<svg width="14" height="12" viewBox="0 0 14 12" fill="none" xmlns="http://www.w3.org/2000/svg">
<path d="M14 1.42039C13.4846 1.66146 12.9313 1.8242 12.3501 1.89755C12.9435 1.52263 13.3988 0.928793 13.6133 0.221485C13.0582 0.568478 12.4434 0.820779 11.7894 0.956559C11.2653 0.367697 10.5187 0 9.69272 0C8.10646 0 6.82044 1.35636 6.82044 3.02921C6.82044 3.26675 6.8457 3.49786 6.89485 3.71951C4.50785 3.59336 2.39081 2.38722 0.974522 0.554355C0.727239 1.00198 0.585565 1.52231 0.585565 2.07747C0.585565 3.1284 1.09261 4.05542 1.86322 4.59887C1.3927 4.58314 0.949566 4.44704 0.562283 4.22009C0.561979 4.23261 0.561979 4.24529 0.561979 4.25813C0.561979 5.72587 1.55233 6.9503 2.86604 7.22844C2.62531 7.29778 2.37148 7.33501 2.10928 7.33501C1.92439 7.33501 1.74467 7.31591 1.56907 7.2806C1.93459 8.484 2.9957 9.35999 4.2522 9.38423C3.269 10.197 2.03091 10.6812 0.685087 10.6812C0.453326 10.6812 0.224761 10.6668 0 10.6385C1.27096 11.4983 2.78037 12 4.403 12C9.68587 12 12.5752 7.38364 12.5752 3.38038C12.5752 3.24941 12.5725 3.11861 12.5668 2.98844C13.1281 2.56152 13.6149 2.02803 14 1.42039Z" fill="#666D89"/>
</svg>
